# xmcd
#
# Track frame offsets:
#	150
#	13961
#	32426
#	52783
#	67489
#	84013
#	112363
#	128298
#	149556
#	168844
#	184732
#	199915
#
# Disc length: 2889 seconds
#
# Revision: 0
# Processed by: cddbd v1.5.2PL0 Copyright (c) Steve Scherf et al.
# Submitted via: audiograbber 1.83.01
#
DISCID=a40b470c
DTITLE=The Rolling Stones - The Rolling Stones
DYEAR=1979
DGENRE=Rock
TTITLE0=Honky Tonk Women 
TTITLE1=Memo From Turner
TTITLE2=Gimme Shelter 
TTITLE3=Street Fighting Man 
TTITLE4=Carol (Live)
TTITLE5=Sympathy For The Devil 
TTITLE6=Jumpin`Jack Flash 
TTITLE7=2000 Light Years From Home 
TTITLE8=We Love You
TTITLE9=The Last Time 
TTITLE10=Paint It Black 
TTITLE11=Satisfaction
EXTD=
EXTT0=
EXTT1=
EXTT2=
EXTT3=
EXTT4=
EXTT5=
EXTT6=
EXTT7=
EXTT8=
EXTT9=
EXTT10=
EXTT11=
PLAYORDER=
